<?xml version="1.0" encoding="iso-8859-1"?>
<!-- Generator: Adobe Illustrator 17.1.0, SVG Export Plug-In . SVG Version: 6.00 Build 0)  -->
<!DOCTYPE svg PUBLIC "-//W3C//DTD SVG 1.1//EN" "http://www.w3.org/Graphics/SVG/1.1/DTD/svg11.dtd">
<svg version="1.1" id="Capa_1" xmlns="http://www.w3.org/2000/svg" xmlns:xlink="http://www.w3.org/1999/xlink" x="0px" y="0px"
	 viewBox="0 0 420.035 420.035" style="enable-background:new 0 0 420.035 420.035;" xml:space="preserve">
<g>
	<path d="M418.857,91.316c-0.352-2.032-1.324-3.906-2.782-5.365L334.066,3.943c-1.459-1.459-3.333-2.431-5.366-2.782
		c-0.676-0.117-6.902-1.144-17.169-1.144c-21.897,0-65.023,4.864-107.824,37.438C144.829,82.265,7.955,254.959,2.157,262.288
		c-3.148,3.979-2.816,9.686,0.771,13.275l16.529,16.53c1.592,1.592,3.719,2.604,5.954,2.866c0.325,0.038,32.87,4.162,64.177,35.469
		c31.307,31.307,35.431,63.852,35.464,64.133c0.245,2.269,1.258,4.385,2.871,5.998l16.53,16.529c1.941,1.94,4.502,2.929,7.074,2.929
		c2.183,0,4.374-0.712,6.201-2.157c7.329-5.798,180.023-142.672,224.833-201.55C429.225,154.996,419.302,93.888,418.857,91.316z
		 M366.647,204.198c-38.354,50.395-181.085,165.795-214.368,192.431l-7.925-7.925c-2-10.614-10.21-42.005-40.622-72.418
		c-30.413-30.412-61.804-38.622-72.418-40.622l-7.925-7.925c26.636-33.283,142.035-176.015,192.43-214.368
		c38.133-29.021,76.335-33.354,95.713-33.354c4.75,0,8.455,0.261,10.817,0.493l77.163,77.163
		C400.706,109.742,402.584,156.978,366.647,204.198z"/>
	<path d="M306.982,78.036c-9.35,0-18.139,3.641-24.748,10.251c-6.611,6.61-10.252,15.399-10.252,24.749
		c0,9.349,3.641,18.138,10.251,24.747c6.61,6.611,15.399,10.253,24.749,10.253c9.349,0,18.138-3.642,24.747-10.252
		c6.611-6.61,10.253-15.399,10.253-24.748c0-9.35-3.642-18.139-10.252-24.748C325.12,81.677,316.331,78.036,306.982,78.036z
		 M317.588,123.643c-2.833,2.833-6.6,4.394-10.605,4.394c-4.007,0-7.773-1.561-10.607-4.395c-2.833-2.833-4.393-6.6-4.393-10.605
		c-0.001-4.007,1.56-7.773,4.394-10.607c2.833-2.833,6.6-4.393,10.606-4.393c4.006,0,7.773,1.56,10.607,4.394
		c2.833,2.833,4.393,6.6,4.393,10.606C321.982,117.042,320.422,120.809,317.588,123.643z"/>
</g>
<g>
</g>
<g>
</g>
<g>
</g>
<g>
</g>
<g>
</g>
<g>
</g>
<g>
</g>
<g>
</g>
<g>
</g>
<g>
</g>
<g>
</g>
<g>
</g>
<g>
</g>
<g>
</g>
<g>
</g>
</svg>
