<?xml version="1.0" encoding="iso-8859-1"?>
<!-- Generator: Adobe Illustrator 19.0.0, SVG Export Plug-In . SVG Version: 6.00 Build 0)  -->
<svg version="1.1" id="Capa_1" xmlns="http://www.w3.org/2000/svg" xmlns:xlink="http://www.w3.org/1999/xlink" x="0px" y="0px"
	 viewBox="0 0 512 512" style="enable-background:new 0 0 512 512;" xml:space="preserve">
<g>
	<g>
		<g>
			<path d="M214.376,279.426c11.333,11.333,26.4,17.574,42.427,17.574c16.026,0,31.094-6.241,42.469-17.617l60.913-61.284
				c7.787-7.834,7.748-20.498-0.086-28.284s-20.498-7.748-28.284,0.086L276,246.056V20c0-11.046-8.954-20-20-20
				c-11.046,0-20,8.954-20,20v224.507l-54.885-54.676c-7.826-7.796-20.489-7.772-28.284,0.054
				c-7.796,7.825-7.771,20.489,0.054,28.284L214.376,279.426z"/>
			<path d="M483.288,352.152C474.714,341.887,461.852,336,448,336s-26.714,5.887-35.288,16.152C402.176,364.766,391.711,372,384,372
				s-18.176-7.234-28.712-19.848C346.714,341.887,333.852,336,320,336s-26.714,5.887-35.288,16.152
				C274.176,364.766,263.711,372,256,372s-18.176-7.234-28.712-19.848C218.714,341.887,205.852,336,192,336
				s-26.714,5.887-35.288,16.152C146.176,364.766,135.711,372,128,372s-18.176-7.234-28.712-19.848
				C90.714,341.887,77.852,336,64,336s-26.714,5.887-35.288,16.152C18.176,364.766,7.711,372,0,372v40
				c20.464,0,40.453-11.508,59.411-34.206C60.35,376.671,62.065,376,64,376s3.65,0.671,4.589,1.794
				C87.547,400.492,107.536,412,128,412s40.453-11.508,59.411-34.206C188.35,376.671,190.065,376,192,376s3.65,0.671,4.589,1.794
				C215.547,400.492,235.536,412,256,412s40.453-11.508,59.411-34.206C316.35,376.671,318.065,376,320,376s3.65,0.671,4.589,1.794
				C343.547,400.492,363.536,412,384,412s40.453-11.508,59.411-34.206C444.35,376.671,446.065,376,448,376s3.65,0.671,4.589,1.794
				C471.547,400.492,491.536,412,512,412v-40C504.289,372,493.824,364.766,483.288,352.152z"/>
			<path d="M483.288,452.152C474.714,441.887,461.852,436,448,436s-26.714,5.887-35.288,16.152C402.176,464.766,391.711,472,384,472
				s-18.176-7.234-28.712-19.848C346.714,441.887,333.852,436,320,436s-26.714,5.887-35.288,16.152
				C274.176,464.766,263.711,472,256,472s-18.176-7.234-28.712-19.848C218.714,441.887,205.852,436,192,436
				s-26.714,5.887-35.288,16.152C146.176,464.766,135.711,472,128,472s-18.176-7.234-28.712-19.848
				C90.714,441.887,77.852,436,64,436s-26.714,5.887-35.288,16.152C18.176,464.766,7.711,472,0,472v40
				c20.464,0,40.453-11.508,59.411-34.206C60.35,476.671,62.065,476,64,476s3.65,0.671,4.589,1.794
				C87.547,500.492,107.536,512,128,512s40.453-11.508,59.411-34.206C188.35,476.671,190.065,476,192,476s3.65,0.671,4.589,1.794
				C215.547,500.492,235.536,512,256,512s40.453-11.508,59.411-34.206C316.35,476.671,318.065,476,320,476s3.65,0.671,4.589,1.794
				C343.547,500.492,363.536,512,384,512s40.453-11.508,59.411-34.206C444.35,476.671,446.065,476,448,476s3.65,0.671,4.589,1.794
				C471.547,500.492,491.536,512,512,512v-40C504.289,472,493.824,464.766,483.288,452.152z"/>
		</g>
	</g>
</g>
<g>
</g>
<g>
</g>
<g>
</g>
<g>
</g>
<g>
</g>
<g>
</g>
<g>
</g>
<g>
</g>
<g>
</g>
<g>
</g>
<g>
</g>
<g>
</g>
<g>
</g>
<g>
</g>
<g>
</g>
</svg>
