<?xml version="1.0" encoding="iso-8859-1"?>
<!-- Generator: Adobe Illustrator 19.0.0, SVG Export Plug-In . SVG Version: 6.00 Build 0)  -->
<svg version="1.1" id="Capa_1" xmlns="http://www.w3.org/2000/svg" xmlns:xlink="http://www.w3.org/1999/xlink" x="0px" y="0px"
	 viewBox="0 0 512.002 512.002" style="enable-background:new 0 0 512.002 512.002;" xml:space="preserve">
<g>
	<g>
		<path d="M227,30.001h-15v151.512c50.821,7.335,90,50.636,90,103.488v16.657c5.14-1.014,10.391-1.657,15.747-1.657
			c23.086,0,44.766,9.756,60,26.558c11.464-12.642,26.558-21.271,43.151-24.785c-2.655-39.725-16.501-77.111-41.7-108.545
			c-5.186-6.46-4.146-15.894,2.329-21.079c6.475-5.171,15.908-4.131,21.079,2.329c29.013,36.193,45.419,80.922,48.241,127.057
			c20.522,3.375,39.144,14.073,51.764,30.927c3.353,0.427,6.302,1.88,9.39,3.012v-20.474C512,157.853,384.148,30.001,227,30.001z
			 M338.621,233.307c-7.399,3.571-16.406,0.536-20.039-6.973c-14.063-29.019-38.071-52.134-67.603-65.068
			c-7.588-3.325-11.045-12.173-7.72-19.761c3.296-7.588,12.129-11.118,19.761-7.72c36.064,15.806,65.391,44.033,82.573,79.482
			C349.197,220.709,346.077,229.689,338.621,233.307z"/>
	</g>
</g>
<g>
	<g>
		<path d="M497.293,362.11c-6.973-0.132-13.184-3.545-17.065-9.36c-9.493-14.238-25.372-22.749-42.481-22.749
			c-17.109,0-32.988,8.511-42.48,22.749c-7.939,11.924-27.1,11.924-35.039,0c-9.493-14.238-25.372-22.749-42.481-22.749
			c-17.109,0-32.988,8.511-42.48,22.749c-7.939,11.924-27.1,11.924-35.039,0c-9.493-14.238-25.372-22.749-42.481-22.749
			s-32.988,8.511-42.48,22.749c-7.939,11.924-27.1,11.924-35.039,0c-9.493-14.238-25.372-22.749-42.481-22.749
			s-33.988,8.511-43.48,22.734c-4.072,6.138-11.708,8.994-18.944,9.375c-4.204-0.22-7.939,1.465-10.811,4.277
			C1.626,369.215,0,373.082,0,377.11v37.181c8.63,9.948,26.783,9.697,34.267-1.542c9.492-14.238,26.371-22.734,43.48-22.734
			s32.988,8.496,42.48,22.734c7.863,11.808,26.666,11.84,34.741,0.26c0.081-0.115,0.22-0.156,0.298-0.275
			c7.119-10.668,17.831-18.115,29.96-21.171c4.043-1.018,8.243-1.549,12.521-1.549c17.109,0,32.988,8.496,42.48,22.734
			c7.939,11.924,27.1,11.924,35.039,0c9.492-14.238,25.371-22.734,42.48-22.734s32.988,8.496,42.48,22.734
			c7.939,11.924,27.1,11.924,35.039,0c9.492-14.238,25.371-22.734,42.48-22.734s32.988,8.496,42.48,22.734
			c7.099,10.66,22.773,11.245,31.772,2.844v-38.483C512,368.937,505.467,362.272,497.293,362.11z"/>
	</g>
</g>
<g>
	<g>
		<path d="M497.749,452.125c-17.111,0-32.99-8.496-42.482-22.734c-7.939-11.924-27.1-11.924-35.039,0
			c-20.305,30.456-64.916,30.044-84.961,0c-7.939-11.924-27.1-11.924-35.039,0c-9.492,14.238-25.371,22.734-42.48,22.734
			s-32.988-8.496-42.48-22.734c-7.939-11.924-27.1-11.924-35.039,0c-19.766,29.636-64.861,30.143-84.961,0
			c-7.939-11.924-27.1-11.924-35.039,0c-9.492,14.238-27.371,22.734-44.48,22.734c-5.469,0-10.697-1.152-15.747-2.798v47.674
			c0,8.291,6.709,15,15,15h482c8.291,0,15-6.709,15-15v-47.097C507.412,451.243,502.667,452.125,497.749,452.125z"/>
	</g>
</g>
<g>
	<g>
		<path d="M152,0.001h-30c-16.569,0-30,13.431-30,30v150c0,16.567,13.431,30,30,30h30c16.569,0,30-13.433,30-30v-150
			C182,13.432,168.569,0.001,152,0.001z"/>
	</g>
</g>
<g>
	<g>
		<path d="M15,30.001c-8.284,0-15,6.714-15,15v120c0,8.284,6.716,15,15,15h47v-150H15z"/>
	</g>
</g>
<g>
</g>
<g>
</g>
<g>
</g>
<g>
</g>
<g>
</g>
<g>
</g>
<g>
</g>
<g>
</g>
<g>
</g>
<g>
</g>
<g>
</g>
<g>
</g>
<g>
</g>
<g>
</g>
<g>
</g>
</svg>
